<svg width="12" height="12" viewBox="0 0 12 12" fill="none" xmlns="http://www.w3.org/2000/svg">
<g clip-path="url(#clip0_32_239)">
<path d="M9.4108 6.7878C9.54367 6.7878 9.67417 6.79867 9.80231 6.81806C9.80231 6.82042 9.79995 6.82279 9.79995 6.82468C9.7503 6.95093 9.68931 7.07718 9.6198 7.19633L9.04341 8.19213C8.51761 9.10754 7.5412 9.67069 6.48489 9.67069H5.33494C4.28052 9.67069 3.30458 9.10754 2.77595 8.19213L2.20003 7.19633C1.94053 6.74695 1.80391 6.23717 1.80391 5.71824C1.80391 5.19931 1.94053 4.68953 2.20003 4.24015L2.77595 3.24435C3.30222 2.32894 4.27815 1.76579 5.33494 1.76579H6.48489C7.53931 1.76579 8.51525 2.32894 9.04341 3.24435L9.6198 4.24015C9.68931 4.3593 9.74794 4.48555 9.79995 4.6118C9.79995 4.61369 9.80231 4.61606 9.80231 4.61842C9.67607 4.63781 9.54556 4.64868 9.4108 4.64868C8.55213 4.64868 8.22824 4.36167 7.8547 4.03116C7.49345 3.71152 7.04567 3.31386 6.22813 3.31386H5.74159C5.15007 3.31386 4.61292 3.529 4.2285 3.91815C3.85213 4.29878 3.6455 4.81843 3.6455 5.38347V6.05064C3.6455 6.61616 3.85213 7.13581 4.2285 7.51597C4.61292 7.90511 5.15007 8.12026 5.74159 8.12026H6.2305C7.04803 8.12026 7.49581 7.7226 7.85659 7.40296C8.2306 7.07056 8.55213 6.78543 9.4108 6.7878ZM9.41317 5.25722C9.60183 5.25722 9.7886 5.2402 9.97064 5.20521C9.9697 5.20332 9.9697 5.20048 9.9697 5.19859C9.93518 5.00284 9.87844 4.80945 9.80468 4.62268C10.1503 4.56594 10.47 4.43543 10.7437 4.23542C10.7437 4.23353 10.7414 4.22927 10.7414 4.22691C10.5849 3.71388 10.348 3.23348 10.0373 2.79421C9.73044 2.36157 9.35879 1.98141 8.93513 1.66177C8.05234 1.00074 7.00217 0.65084 5.89573 0.65084C5.21106 0.65084 4.54578 0.783235 3.92163 1.0485C3.31971 1.30525 2.77595 1.67028 2.31068 2.13555C1.8454 2.60082 1.47801 3.14222 1.2241 3.74651C0.960725 4.37254 0.825966 5.03546 0.825966 5.7206C0.825966 6.40527 0.958833 7.07056 1.2241 7.69423C1.48037 8.29662 1.8454 8.83991 2.31068 9.30519C2.77595 9.77046 3.31735 10.1379 3.92163 10.3922C4.54767 10.6551 5.21106 10.7899 5.89573 10.7899C7.00217 10.7899 8.05234 10.44 8.93513 9.77944C9.35902 9.46121 9.73085 9.079 10.0373 8.64652C10.3456 8.20726 10.5849 7.72496 10.7414 7.21383C10.7414 7.21193 10.7437 7.20721 10.7437 7.20531C10.47 7.0053 10.1503 6.8748 9.80468 6.81806C9.8808 6.63129 9.93518 6.4379 9.9697 6.24214C9.97206 6.23789 9.97206 6.23552 9.97206 6.23127C10.383 6.30976 10.7721 6.47052 11.1088 6.72066C11.4327 6.95944 11.3698 7.22896 11.3196 7.39019C10.6066 9.70757 8.44811 11.3923 5.89573 11.3923C2.76318 11.3923 0.22168 8.85079 0.22168 5.71824C0.22168 2.58569 2.76082 0.0441895 5.89573 0.0441895C8.44811 0.0441895 10.6066 1.72891 11.3196 4.04629C11.3698 4.20752 11.4327 4.47893 11.1088 4.71819C10.7697 4.96832 10.383 5.13098 9.97206 5.2071C10.0326 5.54565 10.0326 5.89272 9.97206 6.23127C9.78907 6.19628 9.6023 6.17926 9.41317 6.17926C7.43482 6.17926 7.53695 7.51408 6.22813 7.51408H5.74159C4.84367 7.51408 4.25215 6.87244 4.25215 6.05064V5.38347C4.25215 4.56168 4.84367 3.92051 5.74159 3.92051H6.2305C7.53931 3.92051 7.43718 5.25533 9.41317 5.25722Z" fill="white"/>
</g>
<defs>
<clipPath id="clip0_32_239">
<rect width="11.3481" height="11.3481" fill="white" transform="translate(0.117188 0.0441895)"/>
</clipPath>
</defs>
</svg>
