<svg width="12" height="13" viewBox="0 0 12 13" fill="none" xmlns="http://www.w3.org/2000/svg">
<path d="M7.97764 7.48041L9.26258 8.76435L5.7858 12.2411L2.30903 8.76483L3.59396 7.48041L5.7858 9.6836L7.97764 7.48041ZM10.17 5.28805L11.4653 6.57247L10.1813 7.85688L8.89693 6.57247L10.17 5.28805ZM5.78585 5.28853L7.07022 6.56112L5.7858 7.84601V7.84554L4.50138 6.57247L5.78585 5.28853ZM1.4016 5.28805L2.67467 6.57247L1.40208 7.84554L0.117188 6.57247L1.4016 5.28805ZM5.7858 0.903856L9.26258 4.36928L7.97769 5.65322L5.7858 3.46134L3.59396 5.66453L2.30907 4.38058L5.7858 0.903856Z" fill="white"/>
</svg>
