<svg width="12" height="19" viewBox="0 0 12 19" fill="none" xmlns="http://www.w3.org/2000/svg">
<path d="M5.41717 18.4046V0.359997H6.57314V18.4046H5.41717ZM8.48333 6.31611C8.42694 5.74752 8.18494 5.3058 7.75732 4.99096C7.3297 4.67612 6.74936 4.5187 6.0163 4.5187C5.5182 4.5187 5.09763 4.58919 4.75459 4.73016C4.41156 4.86644 4.14841 5.05675 3.96514 5.3011C3.78658 5.54546 3.69729 5.82271 3.69729 6.13285C3.6879 6.3913 3.74194 6.61685 3.85941 6.80952C3.98159 7.00218 4.14841 7.169 4.35987 7.30997C4.57133 7.44624 4.81568 7.56607 5.09293 7.66945C5.37017 7.76813 5.66622 7.85272 5.98106 7.9232L7.27801 8.23334C7.90769 8.37432 8.48568 8.56228 9.01198 8.79724C9.53828 9.03219 9.99409 9.32119 10.3794 9.66422C10.7647 10.0073 11.0631 10.4114 11.2746 10.8766C11.4908 11.3418 11.6012 11.8751 11.6059 12.4766C11.6012 13.3601 11.3756 14.126 10.9292 14.7745C10.4875 15.4183 9.84842 15.9187 9.01198 16.2759C8.18024 16.6283 7.17698 16.8045 6.0022 16.8045C4.83683 16.8045 3.82182 16.6259 2.95718 16.2688C2.09725 15.9117 1.42528 15.383 0.94127 14.6829C0.461961 13.978 0.210559 13.1063 0.187064 12.0678H3.14045C3.17334 12.5518 3.31197 12.9559 3.55632 13.2802C3.80537 13.5997 4.13666 13.8417 4.55018 14.0062C4.9684 14.166 5.44066 14.2458 5.96696 14.2458C6.48386 14.2458 6.93263 14.1707 7.31325 14.0203C7.69858 13.8699 7.99697 13.6608 8.20843 13.393C8.41989 13.1251 8.52562 12.8173 8.52562 12.4696C8.52562 12.1453 8.42929 11.8728 8.23663 11.6519C8.04866 11.4311 7.77142 11.2431 7.40489 11.088C7.04305 10.933 6.59899 10.792 6.07269 10.6651L4.50084 10.2704C3.28377 9.97436 2.32281 9.5115 1.61794 8.88182C0.913075 8.25214 0.562992 7.40395 0.567691 6.33726C0.562992 5.46322 0.795598 4.69962 1.26551 4.04644C1.74012 3.39327 2.39094 2.88342 3.21799 2.51689C4.04503 2.15036 4.98485 1.96709 6.03745 1.96709C7.10884 1.96709 8.04396 2.15036 8.84281 2.51689C9.64636 2.88342 10.2713 3.39327 10.7178 4.04644C11.1642 4.69962 11.3944 5.45617 11.4085 6.31611H8.48333Z" fill="white"/>
</svg>
