<svg width="37" height="37" viewBox="0 0 37 37" fill="none" xmlns="http://www.w3.org/2000/svg">
<path d="M20.8125 16.1875V10.4062C20.8125 8.56631 21.5434 6.80173 22.8444 5.5007C24.1455 4.19966 25.9101 3.46875 27.75 3.46875C29.5899 3.46875 31.3545 4.19966 32.6556 5.5007C33.9566 6.80173 34.6875 8.56631 34.6875 10.4062V16.1875M5.78125 33.5312H21.9687C22.8887 33.5312 23.771 33.1658 24.4215 32.5153C25.072 31.8648 25.4375 30.9825 25.4375 30.0625V19.6562C25.4375 18.7363 25.072 17.854 24.4215 17.2035C23.771 16.553 22.8887 16.1875 21.9687 16.1875H5.78125C4.86128 16.1875 3.97899 16.553 3.32847 17.2035C2.67796 17.854 2.3125 18.7363 2.3125 19.6562V30.0625C2.3125 30.9825 2.67796 31.8648 3.32847 32.5153C3.97899 33.1658 4.86128 33.5312 5.78125 33.5312Z" stroke="#FFD200" stroke-width="2.3125" stroke-linecap="round" stroke-linejoin="round"/>
</svg>
