<svg width="12" height="13" viewBox="0 0 12 13" fill="none" xmlns="http://www.w3.org/2000/svg">
<path d="M1.5357 0.753174C1.15949 0.753174 0.798683 0.902624 0.53266 1.16865C0.266638 1.43467 0.117188 1.79547 0.117188 2.17169L0.117188 10.6828C0.117188 11.059 0.266638 11.4198 0.53266 11.6858C0.798683 11.9518 1.15949 12.1013 1.5357 12.1013H10.0468C10.423 12.1013 10.7838 11.9518 11.0498 11.6858C11.3158 11.4198 11.4653 11.059 11.4653 10.6828V2.17169C11.4653 1.79547 11.3158 1.43467 11.0498 1.16865C10.7838 0.902624 10.423 0.753174 10.0468 0.753174H1.5357ZM5.95153 4.57252C5.53732 4.57252 5.28696 4.68884 5.28696 4.99311C5.28696 5.32504 5.71748 5.47115 6.25155 5.65272C7.12251 5.94706 8.26867 6.33573 8.27364 7.77552C8.27364 9.17063 7.15585 9.97351 5.52881 9.97351C4.79482 9.97043 4.06898 9.81942 3.39466 9.52951V7.6741C4.05143 8.03298 4.88055 8.29824 5.52952 8.29824C5.96713 8.29824 6.27992 8.18122 6.27992 7.82233C6.27992 7.45494 5.81323 7.28684 5.24937 7.084C4.39117 6.77476 3.30884 6.38467 3.30884 5.08673C3.30884 3.70723 4.36421 2.88094 5.95153 2.88094C6.61488 2.87501 7.27318 2.99661 7.89064 3.23912V5.07113C7.29628 4.75196 6.54589 4.57252 5.95153 4.57252Z" fill="white"/>
</svg>
